<svg width="610" height="733" viewBox="0 0 610 733" fill="none" xmlns="http://www.w3.org/2000/svg">
<path fill-rule="evenodd" clip-rule="evenodd" d="M305 660C473.447 660 610 523.447 610 355C610 186.553 473.447 50 305 50C136.553 50 0 186.553 0 355C0 523.447 136.553 660 305 660ZM305 626C454.669 626 576 504.669 576 355C576 205.331 454.669 84 305 84C155.331 84 34 205.331 34 355C34 504.669 155.331 626 305 626Z" fill="#62D38E"/>
<path fill-rule="evenodd" clip-rule="evenodd" d="M305 660C473.447 660 610 523.447 610 355C610 186.553 473.447 50 305 50C136.553 50 0 186.553 0 355C0 523.447 136.553 660 305 660ZM305 626C454.669 626 576 504.669 576 355C576 205.331 454.669 84 305 84C155.331 84 34 205.331 34 355C34 504.669 155.331 626 305 626Z" fill="#62D38E"/>
<path fill-rule="evenodd" clip-rule="evenodd" d="M305 660C473.447 660 610 523.447 610 355C610 186.553 473.447 50 305 50C136.553 50 0 186.553 0 355C0 523.447 136.553 660 305 660ZM305 626C454.669 626 576 504.669 576 355C576 205.331 454.669 84 305 84C155.331 84 34 205.331 34 355C34 504.669 155.331 626 305 626Z" fill="#62D38E"/>
<path d="M459.4 0H151.291C121.803 0 98 23.9101 98 53.344V679.009C98 708.416 121.803 732.3 151.291 732.3H459.4C488.834 732.3 512.69 708.416 512.69 679.009V366.177V53.344C512.69 23.9101 488.834 0 459.4 0Z" fill="#12194B"/>
<path d="M452.749 13.5613H158.334C130.157 13.5613 107.411 36.4087 107.411 64.5345V662.392C107.411 690.492 130.157 713.314 158.334 713.314H452.749C480.875 713.314 503.671 690.492 503.671 662.392V64.5345C503.671 36.4087 480.875 13.5613 452.749 13.5613Z" fill="white"/>
</svg>
